<svg width="80" height="80" viewBox="0 0 80 80" fill="none" xmlns="http://www.w3.org/2000/svg">
<path d="M68.125 28.75C65.2261 28.8272 62.4147 27.7528 60.3062 25.7619C58.1978 23.7709 56.964 21.0257 56.875 18.1272C56.9274 16.0577 57.5641 14.0452 58.7116 12.3222L65.7906 1.78937C66.0626 1.42723 66.4151 1.13332 66.8203 0.930911C67.2254 0.728497 67.6721 0.623123 68.125 0.623123C68.5779 0.623123 69.0246 0.728497 69.4297 0.930911C69.8349 1.13332 70.1874 1.42723 70.4594 1.78937L77.4484 12.1844C78.643 13.9416 79.3114 16.0033 79.375 18.1272C79.286 21.0257 78.0522 23.7709 75.9438 25.7619C73.8353 27.7528 71.0239 28.8272 68.125 28.75ZM68.125 8.39594L63.4675 15.3231C62.8855 16.1471 62.5499 17.1196 62.5 18.1272C62.6632 19.5044 63.326 20.7738 64.3628 21.6949C65.3995 22.6161 66.7382 23.1248 68.125 23.1248C69.5118 23.1248 70.8505 22.6161 71.8872 21.6949C72.924 20.7738 73.5868 19.5044 73.75 18.1272C73.687 17.065 73.321 16.0431 72.6953 15.1825L68.125 8.39594ZM61.0937 79.375H18.9062C14.3755 79.3798 10.0045 77.701 6.64191 74.6644C3.27931 71.6278 1.16497 67.4501 0.709352 62.9423C0.253734 58.4344 1.48934 53.9181 4.1763 50.2701C6.86326 46.622 10.8099 44.1025 15.25 43.2006C16.4484 37.5244 19.5615 32.4326 24.0676 28.7786C28.5736 25.1246 34.1986 23.1305 40 23.1305C45.8014 23.1305 51.4264 25.1246 55.9324 28.7786C60.4385 32.4326 63.5516 37.5244 64.75 43.2006C69.1901 44.1025 73.1367 46.622 75.8237 50.2701C78.5107 53.9181 79.7463 58.4344 79.2906 62.9423C78.835 67.4501 76.7207 71.6278 73.3581 74.6644C69.9955 77.701 65.6245 79.3798 61.0937 79.375ZM40 28.75C35.1982 28.7545 30.5636 30.5138 26.9683 33.6968C23.373 36.8797 21.0649 41.267 20.4784 46.0328L20.1972 48.3166L17.905 48.4966C14.6404 48.7451 11.5995 50.2503 9.42197 52.6953C7.24449 55.1403 6.10024 58.3345 6.22994 61.606C6.35965 64.8775 7.75321 67.9712 10.1174 70.2361C12.4817 72.501 15.6322 73.7607 18.9062 73.75H61.0937C64.3678 73.7607 67.5183 72.501 69.8826 70.2361C72.2468 67.9712 73.6403 64.8775 73.7701 61.606C73.8998 58.3345 72.7555 55.1403 70.578 52.6953C68.4005 50.2503 65.3596 48.7451 62.095 48.4966L59.8028 48.3166L59.5244 46.0328C58.9366 41.267 56.6278 36.8801 53.0322 33.6972C49.4366 30.5144 44.802 28.755 40 28.75Z" fill="#BAD4EB"/>
</svg>
